<?xml version="1.0" encoding="utf-8"?>
<!-- Generator: Adobe Illustrator 22.0.0, SVG Export Plug-In . SVG Version: 6.00 Build 0)  -->
<svg version="1.1" id="图层_1" xmlns="http://www.w3.org/2000/svg" xmlns:xlink="http://www.w3.org/1999/xlink" x="0px" y="0px"
	 viewBox="0 0 26 26" style="enable-background:new 0 0 26 26;" xml:space="preserve">
<style type="text/css">
	.st0{fill:#2976FF;stroke:#064CEA;stroke-width:0.5;stroke-miterlimit:10;}
	.st1{fill:#FFFFFF;}
</style>
<path class="st0" d="M24.7,11.7C24.7,5.3,19.5,0,13,0S1.3,5.3,1.3,11.7c0,3.8,1.8,7.2,4.6,9.3l0,0c0.3,0.3,7.1,5,7.1,5
	s6.8-4.7,7.1-4.9l0,0C22.9,18.9,24.7,15.5,24.7,11.7L24.7,11.7z"/>
<g>
	<g>
		<path class="st1" d="M21.6,8.6l-8-2.7c-0.5-0.2-0.4-0.2-0.9,0l-8,2.7C4.2,8.7,4.2,9,4.7,9.2l1.9,0.6c-0.8,0.8-0.9,1.7-0.9,2.7
			c-0.3,0.1-0.6,0.4-0.6,0.8c0,0.3,0.2,0.6,0.5,0.8c-0.1,1-0.5,2.1-1.7,3.5c0.6,0.4,0.9,0.6,1.3,0.7c1.6-0.7,1.4-2.5,1.3-4.3
			c0.2-0.2,0.4-0.4,0.4-0.7c0-0.3-0.2-0.6-0.4-0.7c0-1,0.2-1.8,1-2.4c0,0,0,0,0.1,0L13,7.9c0.2-0.1,0.4,0,0.5,0.2l0,0
			c0.1,0.2,0,0.4-0.2,0.5l-4.6,1.9l4.1,1.4c0.5,0.2,0.4,0.2,0.9,0l7.9-2.7C22.1,9,22.1,8.7,21.6,8.6L21.6,8.6z M21.6,8.6"/>
	</g>
	<path class="st1" d="M12.8,13l-5-1.7v1.3c0.3,0.2,0.4,0.6,0.4,1c0,0.3-0.1,0.7-0.3,0.9c0.1,0.2,0.2,0.4,0.3,0.5
		c2.9,1.6,7,1.6,10.2-0.2c0.2-0.2,0.4-0.4,0.4-0.7v-2.8L13.7,13C13.2,13.2,13.3,13.2,12.8,13L12.8,13z M12.8,13"/>
</g>
</svg>
