<?xml version="1.0" encoding="utf-8"?>
<!-- Generator: Adobe Illustrator 22.0.0, SVG Export Plug-In . SVG Version: 6.00 Build 0)  -->
<svg version="1.1" id="图层_1" xmlns="http://www.w3.org/2000/svg" xmlns:xlink="http://www.w3.org/1999/xlink" x="0px" y="0px"
	 viewBox="0 0 36 36" style="enable-background:new 0 0 36 36;" xml:space="preserve">
<style type="text/css">
	.st0{opacity:0.5;clip-path:url(#SVGID_2_);fill:#FFBC06;}
	.st1{fill:#FF8F08;}
	.st2{fill:#FFBC06;}
	.st3{fill:#FFFFFF;}
</style>
<g>
	<g>
		<defs>
			<rect id="SVGID_1_" x="0" y="0.3" width="36" height="35.4"/>
		</defs>
		<clipPath id="SVGID_2_">
			<use xlink:href="#SVGID_1_"  style="overflow:visible;"/>
		</clipPath>
		<path class="st0" d="M15,35.6H2.7c-1.5,0-2.7-1.2-2.7-2.7V19.5c0-1.5,1.2-2.7,2.7-2.7H15c1.5,0,2.7,1.2,2.7,2.7v13.4
			C17.7,34.4,16.5,35.6,15,35.6L15,35.6z M15,35.6"/>
	</g>
	<path class="st1" d="M26.3,0.3H8.7c-1.9,0-3.4,1.5-3.4,3.4v28.5c0,1.9,1.5,3.4,3.4,3.4h23.9c1.9,0,3.4-1.5,3.4-3.4V9.3L26.3,0.3z
		 M26.3,0.3"/>
	<path class="st2" d="M26.5,0.3v7.7c0,0.3,0.1,0.6,0.3,0.8s0.5,0.3,0.8,0.3H36L26.5,0.3"/>
	<path class="st3" d="M20.9,9.5c-1.7-0.1-3.4,0.5-4.7,1.7c-1.2,1.2-1.9,2.9-1.7,4.7h2.9c-0.1-1,0.2-2,0.7-2.8
		c0.6-0.8,1.6-1.2,2.7-1.1c0.8-0.1,1.7,0.2,2.3,0.8c0.5,0.6,0.8,1.4,0.8,2.2c0,0.7-0.3,1.4-0.7,2l-0.5,0.5c-1.7,1.5-2.7,2.6-3.1,3.4
		c-0.4,0.8-0.5,1.7-0.5,2.6v0.5h2.9v-0.5c0-0.6,0.1-1.3,0.4-1.8c0.3-0.5,0.7-1,1.1-1.4c0.8-0.7,1.6-1.4,2.3-2.1c0.7-1,1-2.1,1-3.3
		c0.1-1.5-0.5-2.9-1.6-3.9C24,9.9,22.5,9.4,20.9,9.5L20.9,9.5z M20.5,25.4c-0.5,0-1,0.2-1.4,0.5c-0.4,0.3-0.6,0.9-0.6,1.4
		c0,1.1,0.9,1.9,2,2c0.5,0,1-0.2,1.4-0.5c0.4-0.4,0.6-0.9,0.6-1.4c0-0.5-0.2-1-0.6-1.4C21.5,25.5,21,25.3,20.5,25.4L20.5,25.4z
		 M20.5,25.4"/>
</g>
</svg>
